<svg xmlns="http://www.w3.org/2000/svg" width="300" height="160" viewBox="0 0 300 160" version="1.1"><path d="M 149.500 6.341 C 143.304 8.390, 139.152 10.818, 134.482 15.123 C 130.242 19.032, 130.141 19.064, 125.750 17.959 C 115.436 15.361, 104.947 22.590, 102.488 33.990 C 101.994 36.282, 100.264 38.776, 97.452 41.251 C 89.105 48.598, 85.891 60.228, 89.176 71.193 C 90.811 76.651, 97.463 83.841, 103.462 86.634 L 108.500 88.980 152 88.968 C 200.387 88.955, 199.820 89.026, 206.811 82.035 C 212.262 76.584, 214.443 71.386, 214.378 64 C 214.286 53.480, 209.320 45.270, 200.452 40.977 C 197.280 39.441, 195.821 38.050, 195.399 36.159 C 193.808 29.026, 192.939 26.572, 190.584 22.552 C 187.443 17.193, 180.356 10.835, 174.204 7.857 C 168.539 5.114, 155.605 4.321, 149.500 6.341 M 150.500 10.399 C 144.469 12.306, 140.859 14.455, 137.075 18.393 C 133.926 21.669, 133.775 22.099, 135.205 23.728 C 137.859 26.754, 140 31.765, 140 34.950 C 140 39.240, 137.275 38.985, 136.456 34.618 C 134.959 26.637, 129.339 21.833, 121.500 21.833 C 113.402 21.833, 107.826 26.985, 106.422 35.761 C 105.956 38.677, 104.988 40.433, 103.202 41.603 C 90.269 50.077, 88.085 67.733, 98.649 78.406 C 105.143 84.967, 105.035 84.954, 152.300 84.978 C 189.763 84.997, 195.498 84.798, 198.300 83.383 C 212.536 76.190, 214.709 57.854, 202.586 47.210 C 198.436 43.566, 193.537 42.013, 186.167 42.006 C 179.268 41.998, 179.581 39.711, 186.578 39 C 191.366 38.514, 191.491 38.418, 191.157 35.500 C 190.041 25.739, 179.971 13.909, 170.050 10.705 C 163.910 8.722, 156.184 8.601, 150.500 10.399" stroke="none" fill="#7184be" fill-rule="evenodd"/><path d="M 150.500 10.399 C 144.469 12.306, 140.859 14.455, 137.075 18.393 C 133.926 21.669, 133.775 22.099, 135.205 23.728 C 137.859 26.754, 140 31.765, 140 34.950 C 140 39.240, 137.275 38.985, 136.456 34.618 C 134.959 26.637, 129.339 21.833, 121.500 21.833 C 113.402 21.833, 107.826 26.985, 106.422 35.761 C 105.956 38.677, 104.988 40.433, 103.202 41.603 C 90.269 50.077, 88.085 67.733, 98.649 78.406 C 105.143 84.967, 105.035 84.954, 152.300 84.978 C 189.763 84.997, 195.498 84.798, 198.300 83.383 C 212.536 76.190, 214.709 57.854, 202.586 47.210 C 198.436 43.566, 193.537 42.013, 186.167 42.006 C 179.268 41.998, 179.581 39.711, 186.578 39 C 191.366 38.514, 191.491 38.418, 191.157 35.500 C 190.041 25.739, 179.971 13.909, 170.050 10.705 C 163.910 8.722, 156.184 8.601, 150.500 10.399 M 37.680 106.750 C 37.349 107.317, 27.718 138.643, 23.384 153.250 C 22.922 154.807, 23.691 155, 30.355 155 L 37.845 155 40.848 145.250 C 42.499 139.887, 44.601 132.879, 45.518 129.676 C 46.435 126.473, 47.321 123.998, 47.487 124.176 C 47.653 124.354, 48.541 128.325, 49.460 133 C 51.699 144.387, 51.909 145, 53.571 145 C 54.361 145, 58.699 140.519, 63.212 135.042 C 67.725 129.565, 71.556 125.223, 71.727 125.394 C 71.897 125.564, 70.229 131.715, 68.018 139.062 C 65.808 146.410, 64 153.021, 64 153.754 C 64 154.770, 65.728 155.018, 71.250 154.794 L 78.500 154.500 85.652 131 C 89.586 118.075, 92.597 107.162, 92.343 106.750 C 91.549 105.458, 79.097 105.933, 75.614 107.388 C 73.787 108.151, 70.152 111.414, 67.536 114.638 C 64.919 117.862, 62.433 120.632, 62.009 120.793 C 61.586 120.955, 60.925 118.985, 60.540 116.415 C 59.569 109.942, 59.150 109.129, 55.928 107.463 C 52.968 105.932, 38.488 105.366, 37.680 106.750 M 130.500 107.861 C 126.148 110.549, 124.416 112.805, 121.113 120.091 C 114.659 134.325, 113.924 147.938, 119.356 152.624 C 122.473 155.313, 131.972 156.432, 143.516 155.470 L 151.925 154.770 153.463 149.481 C 154.308 146.572, 155 143.773, 155 143.261 C 155 142.727, 151.625 142.526, 147.070 142.790 C 142.709 143.042, 137.480 142.937, 135.450 142.557 L 131.760 141.864 132.409 136.682 C 132.767 133.832, 134.508 128.575, 136.279 125 L 139.500 118.500 151.221 118.219 L 162.941 117.937 164.471 112.787 C 165.312 109.955, 166 107.269, 166 106.818 C 166 106.368, 158.688 106.002, 149.750 106.004 C 135.680 106.007, 133.098 106.256, 130.500 107.861 M 172.081 108.286 C 171.603 109.544, 170.226 113.931, 169.022 118.036 C 167.817 122.141, 164.844 131.948, 162.416 139.828 C 159.987 147.708, 158 154.346, 158 154.578 C 158 154.810, 161.310 155, 165.356 155 L 172.713 155 174.637 148.250 L 176.562 141.500 180.625 141.200 L 184.687 140.900 187.174 147.700 L 189.662 154.500 196.831 154.794 C 200.774 154.955, 204 154.922, 204 154.719 C 204 154.516, 202.918 151.168, 201.595 147.279 L 199.190 140.208 202.717 136.854 C 207.477 132.328, 210.978 124.674, 210.990 118.766 C 210.998 115.004, 210.435 113.401, 208.250 110.963 C 204.676 106.974, 200.383 106.053, 185.225 106.024 C 173.348 106.001, 172.922 106.074, 172.081 108.286 M 222.382 107.152 C 221.372 108.741, 208.071 151.923, 208.029 153.750 C 208.008 154.639, 210.112 155, 215.303 155 L 222.605 155 227 140 C 229.417 131.750, 231.660 125, 231.985 125 C 232.310 125, 233.459 129.385, 234.538 134.744 C 235.968 141.846, 236.934 144.569, 238.101 144.788 C 239.115 144.979, 242.747 141.320, 248.020 134.795 C 257.803 122.686, 258.576 121.825, 257.262 124.500 C 256.451 126.152, 254.302 133.107, 248.380 153.250 C 247.922 154.807, 248.694 155, 255.390 155 L 262.914 155 265.882 145.250 C 267.514 139.887, 270.683 129.486, 272.925 122.135 C 275.166 114.785, 277 108.147, 277 107.385 C 277 106.362, 275.465 106, 271.125 106 C 259.906 106, 257.909 107.034, 249.872 116.998 L 246.245 121.496 245.075 115.860 C 243.413 107.857, 241.625 106.577, 231.515 106.152 C 225.362 105.894, 223.019 106.150, 222.382 107.152 M 184.667 115.750 C 184.154 116.602, 180 129.935, 180 130.729 C 180 131.014, 182.468 131.043, 185.485 130.793 C 191.740 130.274, 194.378 128.413, 196.052 123.341 C 196.979 120.534, 196.892 119.484, 195.567 117.462 C 194.256 115.461, 193.127 115, 189.536 115 C 187.106 115, 184.915 115.338, 184.667 115.750 M 87.053 136.750 C 85.260 143.205, 84.907 143, 97.809 143 L 109.618 143 111.217 138 L 112.816 133 100.455 133 L 88.094 133 87.053 136.750" stroke="none" fill="#386cc7" fill-rule="evenodd"/></svg>