<svg id="Layer_1" data-name="Layer 1" xmlns="http://www.w3.org/2000/svg" viewBox="0 0 295.73 100.41"><defs><style>.cls-1{fill:#97c7ea;fill-rule:evenodd;}</style></defs><path class="cls-1" d="M241.29,30c-3.36,5-6.81,9.94-7.67,10.86-1.84,2-.82,2.44-14.25-6.69-4.61-3.13-8.7-5.8-9.09-5.94s-.93.75-1.21,2-1.89,8.41-3.6,16c-7,31-9.14,41-8.84,41.17,2.71,1.84,34.15,22.79,39.26,26.17,3.89,2.56,8,5.35,9,6.19,2.12,1.65,4,2,4.7.82.42-.69,13.15-9.5,42.3-29.27,3.52-2.39,6.4-4.56,6.4-4.83s-.86-4-1.9-8.29-2.37-9.81-2.94-12.27c-1.41-6.08-3.63-15.54-5.85-24.9-1-4.29-2.08-9-2.36-10.59s-.71-2.76-1-2.74a13.59,13.59,0,0,0-2.79,1.67c-1.28.9-4.62,3.19-7.44,5.1s-6.26,4.33-7.67,5.38A10.36,10.36,0,0,1,263,41.73c-.49,0-3.52-3.89-6.73-8.65s-6.51-9.45-7.33-10.45l-1.5-1.81L241.29,30M7.12,58.26c-.48,2.56-1.39,8-2,12.07s-1.5,8.6-1.93,10a14.48,14.48,0,0,0-.54,4.85c.23,2,.52,2.24,3.37,2.44s3.23,0,4.26-2a11.3,11.3,0,0,0,1-4.69c-.11-3.13.8-7.32,1.59-7.32.33,0,.78.69,1,1.53.82,3.14,6.75,12.59,7.89,12.58.71,0,2.48-2.54,4.52-6.45,1.83-3.54,3.71-6.56,4.16-6.7s1,1.55,1.33,4.6c.73,7.14,1.56,8.56,5,8.56,4.18,0,4.58-1.34,2.91-9.73-.76-3.85-1.59-8.83-1.85-11.08C37,59.39,35.53,54,34.3,53.77c-.81-.16-2.66,2.41-6,8.39-2.68,4.75-5.08,9.28-5.33,10.08-.88,2.75-1,2.57-7.54-9.58-4.65-8.68-4.9-9-6.24-9-.84,0-1.41,1.29-2,4.64M81,54.16c-4.46,1.13-9.7,6.19-11.56,11.16s-1.87,6.73.3,11.5,4.55,7.35,9,9.51c4.29,2.07,11,1.79,15.81-.67,3.78-1.93,4-3.66.9-6.29l-2.23-1.88L90,78.89C82.23,82.33,75.29,76.25,77.52,68a8.9,8.9,0,0,1,13.34-5.61c2.23,1.28,2.27,1.28,4.52-.88,1.25-1.19,2.27-2.53,2.27-3s-1.46-1.71-3.24-2.84c-2.65-1.67-4-2-7.62-1.95a38.59,38.59,0,0,0-5.83.45m24.15.89c-1,1.81-1,29.51,0,31.32.88,1.65,5.06,2,6.51.55.54-.54.89-3.17.89-6.69,0-5.18.15-5.8,1.4-5.8,1,0,2.21,1.6,4.16,5.39,3.75,7.31,4.45,8,8.26,8,1.76,0,3.36-.27,3.56-.6s-1-3.29-2.69-6.58l-3.08-6,3.12-3.24c1.71-1.79,3.14-3.6,3.17-4s.17-1.62.29-2.64a12.19,12.19,0,0,0-1.08-4.91c-2.06-4.77-5.83-6.24-15.85-6.18-6.82,0-8,.24-8.66,1.37m36.9-.87a56.35,56.35,0,0,0-1.65,7.62c-.1.61-.74,4.29-1.44,8.17s-1.26,7.56-1.26,8.18a18.26,18.26,0,0,1-.76,3.57,9.69,9.69,0,0,0-.29,4.27c.39,1.55.9,1.82,3.39,1.82,3.63,0,4.39-1.2,5.29-8.4.6-4.78,1.08-6.47,1.62-5.66.11.17,1.74,3.32,3.63,7,4.61,9,5.21,9,9.89.08,2-3.87,3.9-6.9,4.16-6.74s.69,2.35.95,4.86A27.14,27.14,0,0,0,167,85.47c.81,1.7,1.41,2,4.28,2,3.09,0,3.33-.14,3.24-1.86-.19-3.59-.93-8.91-1.33-9.56A41.33,41.33,0,0,1,172,69.51c-.41-3.22-1.17-8-1.7-10.69-1.47-7.48-2.66-6.82-9.12,5-3.91,7.17-5.58,9.6-6.12,8.92-.41-.51-1.82-2.94-3.15-5.39C145,54.54,143.18,52.13,142,54.18M85.39,56.59a3.35,3.35,0,0,1-2.4.75c-2.72,0-1.85.55,1.28.81a9.69,9.69,0,0,1,3.35.76c.41.29,1.39.06,2.18-.52s1-1,.56-1a5.36,5.36,0,0,1-3.26-.82c-.78-.42-1.43-.39-1.71.07m24.71.59a2.93,2.93,0,0,0-1.72,2.25,14.51,14.51,0,0,1-1.12,3.29c-.46.85-.44,1.31,0,1.31s.75,2.06.75,4.78.34,5,.75,5.25.74-.2.74-1c0-1.11.4-1.39,1.67-1.15,1,.17,1.19.09.56-.18-1.61-.71-2.25-1.94-1.79-3.43.22-.72.13-1.3-.2-1.3s-.61-.84-.61-1.86.18-1.86.41-1.86.27-1.17.1-2.6l-.3-2.6L116,58c3.62,0,6.09-.19,5.47-.33a65.36,65.36,0,0,0-11.33-.48M91.33,59.57a2.69,2.69,0,0,0,2.09.69c1.57,0,1.57-.08.14-.69-2-.88-2.77-.88-2.23,0m33.33,1.1c.92,2,2,2.47,2,.9,0-1-1.44-2.75-2.3-2.75-.29,0-.14.84.33,1.85m-48.73.2c-1.65,1.89-3,4.7-2.5,5.2.24.24.43.07.43-.38a3.44,3.44,0,0,1,.93-1.82c2.76-3,3.69-4.3,3-4.3a3.68,3.68,0,0,0-1.88,1.3m36.73,3.71.22,3.53,3.61.23c4.05.26,6.43-1.18,6.43-3.91,0-2.56-1.49-3.38-6.14-3.38h-4.35l.23,3.53M9.2,62.93a1.83,1.83,0,0,0,1.12,1.57A1.76,1.76,0,0,1,11.43,66c0,.57.33,1,.74,1s.75.46.75,1A3,3,0,0,0,14,69.93a5.09,5.09,0,0,1,1.3,2.88c.12,1.1.58,1.93,1,1.86s1.56,1.51,2.51,3.53,2.2,3.66,2.76,3.66,1-.28,1-.64a13.3,13.3,0,0,1,1.85-3.36,18.92,18.92,0,0,0,2.31-4.56c.25-1,.68-1.84,1-1.84S29,70,30,68.11c2.05-3.74,3-4.22,3-1.53a3.13,3.13,0,0,0,.86,2.35c.63.38.72-.34.35-2.68a18.23,18.23,0,0,0-.93-3.86c-.75-1.22-2.55,1.08-5.3,6.77a67,67,0,0,1-3.12,6A11.62,11.62,0,0,0,23.61,77a3.79,3.79,0,0,1-2.13,1.75c-.92.18-1.14,0-.73-.75.32-.55.31-.75,0-.46s-1.6-1.37-2.83-3.71S15.39,69.49,15,69.35a1.25,1.25,0,0,1-.64-1.13c0-1.24-3.62-6.42-4.48-6.42-.4,0-.72.51-.72,1.13m134.53.35c0,.82.33,1.49.74,1.49s.75.48.75,1.08a2.18,2.18,0,0,0,1,1.67c1.59.93,3.49,5.2,2.94,6.62-.36,1-.2,1.18.61.87s1.62.66,2.83,3.21c.95,2,2.12,3.64,2.61,3.64s1.44-1.08,2.13-2.41,2-3.59,2.83-5,2.5-4.34,3.63-6.46c2.1-3.92,3-4.29,3-1.26a2.88,2.88,0,0,0,.65,2.09c.35.22.89,2.83,1.19,5.8.45,4.39.68,5.07,1.23,3.64a3,3,0,0,0,0-2.6c-.36-.46-.89-3-1.17-5.55a36.71,36.71,0,0,0-1.26-6.68l-.75-2-1.41,1.85a60.66,60.66,0,0,0-3.73,6.31c-5.9,11.3-6.27,11.39-10.86,2.62a64.61,64.61,0,0,0-4.38-7.49,4.12,4.12,0,0,1-1.07-2.06.82.82,0,0,0-.75-.87c-.41,0-.74.66-.74,1.48m-18.23,3c-2.2,2.44-6.17,4.61-7.21,4a8.18,8.18,0,0,0-3-.71c-2.63-.14-2.87,2.42-.31,3.39,2.19.83,6.2,4.8,6.82,6.74.25.82.78,1.48,1.16,1.48s.69.65.69,1.44a2.46,2.46,0,0,0,.75,1.9c1,.64,1,.27-.8-4.43-.85-2.26-1.85-4.11-2.23-4.11-1,0-.83-1.24.39-2.46.59-.6.9-1.26.68-1.48s.3-.77,1.15-1.23,1.56-.57,1.58-.25.51-.74,1.08-2.36c1.25-3.5,1.08-3.9-.76-1.87M71.63,70a11.81,11.81,0,0,0,.69,4.28A19.91,19.91,0,0,1,73.46,77c.24.78.61,1.24.81,1s0-1.35-.48-2.53a15.69,15.69,0,0,1-.73-5.3c.07-1.79-.21-3.16-.65-3.16s-.78,1.34-.78,3m-18-1.69-5,.26v5.94l6.09-.22,6.08-.21V71.79c0-2.37-.74-4.15-1.62-3.9-.28.08-2.77.26-5.53.4M142,71.23c-.25,1.56-.57,4-.72,5.43a46.92,46.92,0,0,1-.83,5c-.36,1.51-.29,2.41.18,2.41.77,0,2.88-14.63,2.21-15.31-.21-.2-.58.9-.84,2.45m-107.32.6A30,30,0,0,0,35.1,77c.49,2.65.6,2.78,1,1.16A3.44,3.44,0,0,0,36,75.58a8.93,8.93,0,0,1-1-3.38c-.28-2.38-.32-2.41-.39-.37m-27.11,2a4.17,4.17,0,0,0,.24,2.42c.48,1.21.6,1,.65-.93.05-2.51-.29-3.08-.89-1.49M6.21,81.54c-.94,2.47-.93,2.55.39,2.55.74,0,1.11-.74,1.11-2.23,0-2.73-.54-2.85-1.5-.32m29.52,1c.22.84.7,1.53,1.06,1.53,1,0,.78-1.2-.4-2.18-.87-.72-1-.6-.66.65m54.11.54c-1.3,1.05-1.32,1.14-.12.72a8.52,8.52,0,0,1,2-.47.72.72,0,0,0,.69-.74c0-1.06-.88-.89-2.61.49" transform="translate(-2.59 -20.82)"/></svg>