<svg xmlns="http://www.w3.org/2000/svg" width="454" height="179" viewBox="0 0 454 179" version="1.1"><path d="M 350.264 31.223 C 345.741 38.019, 341.095 44.594, 339.939 45.835 C 337.472 48.483, 338.832 49.122, 320.768 36.838 C 314.570 32.624, 309.068 29.024, 308.541 28.838 C 308.014 28.652, 307.282 29.850, 306.916 31.500 C 306.550 33.150, 304.369 42.825, 302.070 53 C 292.635 94.751, 289.764 108.124, 290.173 108.401 C 293.816 110.870, 336.123 139.059, 343 143.600 C 348.225 147.050, 353.696 150.802, 355.158 151.937 C 358.016 154.155, 360.518 154.589, 361.480 153.033 C 362.048 152.114, 379.180 140.261, 418.389 113.658 C 423.125 110.445, 427 107.520, 426.999 107.158 C 426.998 106.796, 425.849 101.775, 424.444 96 C 423.039 90.225, 421.264 82.800, 420.498 79.500 C 418.599 71.314, 415.605 58.582, 412.618 46 C 411.248 40.225, 409.823 33.813, 409.452 31.750 C 409.081 29.688, 408.490 28.026, 408.139 28.058 C 407.787 28.089, 406.097 29.102, 404.382 30.308 C 402.666 31.513, 398.166 34.599, 394.382 37.163 C 390.597 39.728, 385.950 42.991, 384.056 44.413 C 382.161 45.836, 380.073 47, 379.414 47 C 378.756 47, 374.681 41.767, 370.358 35.372 C 366.036 28.976, 361.597 22.646, 360.494 21.305 L 358.488 18.866 350.264 31.223 M 35.201 69.250 C 34.553 72.688, 33.329 79.990, 32.483 85.478 C 31.636 90.966, 30.466 97.049, 29.883 98.996 C 29.300 100.943, 28.975 103.878, 29.161 105.518 C 29.471 108.241, 29.865 108.526, 33.696 108.805 C 37.469 109.079, 38.046 108.812, 39.419 106.156 C 40.259 104.532, 40.894 101.694, 40.830 99.851 C 40.682 95.634, 41.902 90, 42.963 90 C 43.405 90, 44.009 90.928, 44.306 92.062 C 45.412 96.290, 53.389 109, 54.928 108.986 C 55.883 108.977, 58.266 105.574, 61 100.312 C 63.475 95.549, 65.999 91.489, 66.608 91.290 C 67.301 91.064, 67.968 93.383, 68.388 97.482 C 69.372 107.089, 70.490 109, 75.125 109 C 80.739 109, 81.278 107.198, 79.040 95.906 C 78.015 90.732, 76.892 84.025, 76.545 81 C 75.372 70.757, 73.430 63.517, 71.770 63.196 C 70.679 62.985, 68.192 66.447, 63.650 74.496 C 60.049 80.878, 56.825 86.978, 56.484 88.050 C 55.307 91.759, 55.115 91.514, 46.346 75.158 C 40.086 63.482, 39.753 63, 37.950 63 C 36.818 63, 36.052 64.740, 35.201 69.250 M 134.542 63.729 C 128.541 65.254, 121.498 72.053, 118.998 78.736 C 116.426 85.610, 116.482 87.802, 119.395 94.221 C 122.375 100.786, 125.520 104.105, 131.508 107.004 C 137.275 109.796, 146.301 109.418, 152.779 106.113 C 157.867 103.517, 158.201 101.189, 153.994 97.648 L 150.987 95.118 146.721 97.005 C 136.262 101.632, 126.919 93.443, 129.924 82.283 C 132.119 74.131, 140.597 70.566, 147.866 74.738 C 150.867 76.460, 150.921 76.450, 153.947 73.551 C 155.626 71.942, 156.999 70.148, 156.998 69.563 C 156.997 68.978, 155.038 67.263, 152.643 65.750 C 149.076 63.496, 147.227 63.021, 142.395 63.116 C 139.153 63.180, 135.619 63.456, 134.542 63.729 M 167.044 64.918 C 165.735 67.364, 165.728 104.623, 167.036 107.067 C 168.222 109.283, 173.846 109.754, 175.800 107.800 C 176.528 107.072, 177 103.533, 177 98.800 C 177 91.839, 177.202 91, 178.876 91 C 180.195 91, 181.855 93.150, 184.473 98.250 C 189.523 108.088, 190.467 109, 195.596 109 C 197.953 109, 200.108 108.634, 200.384 108.187 C 200.661 107.740, 199.027 103.761, 196.754 99.346 L 192.621 91.317 196.810 86.957 C 199.115 84.559, 201.037 82.125, 201.083 81.549 C 201.129 80.972, 201.305 79.375, 201.473 78 C 201.642 76.625, 200.984 73.654, 200.012 71.398 C 197.243 64.977, 192.174 62.998, 178.696 63.081 C 169.516 63.137, 167.857 63.398, 167.044 64.918 M 216.690 63.750 C 216.307 64.422, 215.087 70.047, 214.467 74 C 214.338 74.825, 213.468 79.775, 212.535 85 C 211.603 90.225, 210.835 95.175, 210.830 96 C 210.824 96.825, 210.368 98.986, 209.815 100.803 C 209.262 102.620, 209.086 105.207, 209.424 106.553 C 209.946 108.632, 210.632 109, 213.984 109 C 218.870 109, 219.888 107.384, 221.104 97.698 C 221.912 91.264, 222.558 88.997, 223.275 90.083 C 223.426 90.313, 225.624 94.550, 228.160 99.500 C 234.368 111.617, 235.179 111.624, 241.469 99.610 C 244.194 94.404, 246.713 90.323, 247.066 90.541 C 247.420 90.759, 247.997 93.699, 248.350 97.074 C 248.703 100.448, 249.562 104.400, 250.259 105.855 C 251.351 108.134, 252.148 108.500, 256.013 108.500 C 260.167 108.500, 260.490 108.315, 260.370 106 C 260.118 101.176, 259.124 94.009, 258.585 93.138 C 258.286 92.653, 257.592 88.712, 257.044 84.379 C 256.495 80.045, 255.470 73.575, 254.765 70 C 252.782 59.937, 251.185 60.816, 242.487 76.755 C 237.225 86.395, 234.982 89.668, 234.259 88.755 C 233.712 88.065, 231.805 84.800, 230.021 81.500 C 220.691 64.241, 218.258 61.001, 216.690 63.750 M 140.502 66.997 C 140.161 67.549, 138.709 68, 137.274 68 C 133.618 68, 134.791 68.750, 139 69.102 C 140.925 69.264, 142.951 69.720, 143.503 70.115 C 144.054 70.511, 145.378 70.197, 146.444 69.417 C 147.510 68.638, 147.846 68, 147.191 68 C 145.205 68, 144.571 67.841, 142.811 66.899 C 141.761 66.337, 140.887 66.374, 140.502 66.997 M 173.751 67.793 C 172.789 67.987, 171.749 69.351, 171.440 70.823 C 171.132 72.295, 170.453 74.287, 169.931 75.250 C 169.315 76.387, 169.337 77, 169.992 77 C 170.565 77, 171 79.778, 171 83.441 C 171 86.984, 171.450 90.160, 172 90.500 C 172.550 90.840, 173 90.234, 173 89.153 C 173 87.657, 173.538 87.287, 175.250 87.605 C 176.519 87.840, 176.846 87.734, 176 87.361 C 173.831 86.405, 172.967 84.753, 173.590 82.750 C 173.890 81.787, 173.767 81, 173.317 81 C 172.868 81, 172.500 79.875, 172.500 78.500 C 172.500 77.125, 172.747 76, 173.049 76 C 173.351 76, 173.415 74.425, 173.190 72.500 L 172.781 69 181.641 68.884 C 186.513 68.820, 189.825 68.621, 189 68.442 C 186.431 67.883, 175.589 67.422, 173.751 67.793 M 148.500 71 C 148.840 71.550, 150.104 71.968, 151.309 71.930 C 153.421 71.862, 153.428 71.829, 151.500 71 C 148.748 69.817, 147.769 69.817, 148.500 71 M 193.344 72.492 C 194.587 75.172, 196 75.815, 196 73.700 C 196 72.310, 194.061 70, 192.894 70 C 192.506 70, 192.708 71.121, 193.344 72.492 M 127.783 72.750 C 125.566 75.292, 123.746 79.079, 124.419 79.752 C 124.739 80.072, 125 79.840, 125 79.238 C 125 78.636, 125.563 77.534, 126.250 76.790 C 129.961 72.775, 131.206 71, 130.310 71 C 129.760 71, 128.623 71.787, 127.783 72.750 M 177.195 77.750 L 177.500 82.500 182.356 82.809 C 187.806 83.156, 191 81.211, 191 77.545 C 191 74.106, 188.992 73, 182.745 73 L 176.890 73 177.195 77.750 M 38 75.531 C 38 76.374, 38.675 77.322, 39.500 77.638 C 40.325 77.955, 41 78.841, 41 79.607 C 41 80.373, 41.450 81, 42 81 C 42.550 81, 43 81.620, 43 82.378 C 43 83.135, 43.648 84.293, 44.441 84.951 C 45.233 85.608, 46.020 87.351, 46.191 88.823 C 46.361 90.295, 46.971 91.418, 47.546 91.318 C 48.122 91.218, 49.646 93.355, 50.934 96.068 C 52.222 98.781, 53.889 101, 54.638 101 C 55.387 101, 56 100.613, 56 100.140 C 56 99.666, 57.119 97.630, 58.487 95.614 C 59.856 93.598, 61.254 90.835, 61.596 89.474 C 61.937 88.113, 62.515 87, 62.879 87 C 63.244 87, 64.648 84.975, 66 82.500 C 68.753 77.460, 70 76.818, 70 80.441 C 70 81.784, 70.519 83.202, 71.152 83.594 C 71.992 84.113, 72.118 83.136, 71.616 79.999 C 71.237 77.629, 70.678 75.288, 70.374 74.797 C 69.360 73.156, 66.935 76.256, 63.240 83.914 C 61.227 88.086, 59.337 91.725, 59.040 92 C 58.743 92.275, 58.002 93.400, 57.393 94.500 C 56.784 95.600, 55.493 96.656, 54.524 96.846 C 53.284 97.090, 52.993 96.794, 53.542 95.846 C 53.970 95.106, 53.957 94.829, 53.513 95.230 C 53.069 95.632, 51.357 93.382, 49.707 90.230 C 48.057 87.079, 46.324 84.350, 45.854 84.167 C 45.384 83.983, 45 83.300, 45 82.649 C 45 80.980, 40.128 74, 38.964 74 C 38.434 74, 38 74.689, 38 75.531 M 219 76 C 219 77.100, 219.450 78, 220 78 C 220.550 78, 221 78.653, 221 79.450 C 221 80.248, 221.614 81.260, 222.365 81.700 C 224.509 82.957, 227.055 88.693, 226.319 90.610 C 225.832 91.881, 226.051 92.194, 227.139 91.777 C 228.184 91.376, 229.317 92.661, 230.951 96.103 C 232.229 98.796, 233.805 101, 234.453 101 C 235.100 101, 236.392 99.537, 237.324 97.750 C 238.256 95.963, 239.969 92.925, 241.131 91 C 242.292 89.075, 244.490 85.164, 246.014 82.310 C 248.836 77.027, 250 76.529, 250 80.608 C 250 81.859, 250.391 83.124, 250.869 83.419 C 251.346 83.714, 252.070 87.228, 252.477 91.228 C 253.078 97.129, 253.389 98.051, 254.124 96.121 C 254.651 94.738, 254.660 93.273, 254.146 92.621 C 253.659 92.004, 252.950 88.646, 252.570 85.157 C 252.190 81.668, 251.427 77.623, 250.874 76.168 L 249.868 73.523 247.972 76.012 C 246.929 77.380, 244.667 81.200, 242.944 84.500 C 235.005 99.707, 234.516 99.825, 228.335 88.021 C 225.894 83.358, 223.244 78.823, 222.448 77.943 C 221.652 77.063, 221 75.815, 221 75.171 C 221 74.527, 220.550 74, 220 74 C 219.450 74, 219 74.900, 219 76 M 194.476 80.026 C 191.508 83.306, 186.172 86.226, 184.768 85.339 C 184.071 84.898, 182.262 84.469, 180.750 84.385 C 177.206 84.190, 176.893 87.629, 180.336 88.938 C 183.281 90.057, 188.673 95.396, 189.504 98.014 C 189.851 99.106, 190.554 100, 191.067 100 C 191.580 100, 192 100.873, 192 101.941 C 192 103.009, 192.450 104.160, 193 104.500 C 194.381 105.353, 194.291 104.852, 191.928 98.538 C 190.789 95.492, 189.439 93, 188.928 93 C 187.543 93, 187.807 91.336, 189.452 89.690 C 190.251 88.892, 190.663 87.996, 190.367 87.700 C 190.071 87.404, 190.767 86.660, 191.914 86.046 C 193.061 85.432, 194.020 85.283, 194.044 85.715 C 194.068 86.147, 194.723 84.717, 195.499 82.538 C 197.176 77.831, 196.955 77.288, 194.476 80.026 M 122 85.014 C 122 87.221, 122.417 89.809, 122.927 90.764 C 123.437 91.719, 124.122 93.352, 124.451 94.393 C 124.779 95.434, 125.274 96.059, 125.552 95.782 C 125.829 95.504, 125.537 93.977, 124.902 92.389 C 124.268 90.800, 123.826 87.588, 123.921 85.250 C 124.017 82.849, 123.637 81, 123.046 81 C 122.471 81, 122 82.806, 122 85.014 M 97.750 82.742 L 91 83.091 91 87.086 L 91 91.081 99.184 90.790 L 107.369 90.500 107.366 87.449 C 107.364 84.260, 106.370 81.862, 105.191 82.196 C 104.811 82.304, 101.463 82.549, 97.750 82.742 M 216.612 86.699 C 216.271 88.789, 215.834 92.075, 215.640 94 C 215.446 95.925, 214.942 98.963, 214.519 100.750 C 214.038 102.783, 214.129 104, 214.763 104 C 215.801 104, 218.641 84.308, 217.734 83.400 C 217.457 83.124, 216.952 84.608, 216.612 86.699 M 72.218 87.500 C 72.161 89.150, 72.446 92.300, 72.850 94.500 C 73.505 98.069, 73.656 98.236, 74.250 96.052 C 74.617 94.706, 74.522 93.129, 74.040 92.548 C 73.558 91.967, 72.974 89.919, 72.742 87.996 C 72.356 84.799, 72.311 84.757, 72.218 87.500 M 35.745 90.250 C 35.488 90.938, 35.633 92.400, 36.068 93.500 C 36.713 95.129, 36.872 94.897, 36.930 92.250 C 37.003 88.870, 36.550 88.105, 35.745 90.250 M 33.975 100.565 C 32.711 103.890, 32.728 104, 34.500 104 C 35.500 104, 36 103, 36 101 C 36 97.323, 35.268 97.166, 33.975 100.565 M 73.695 101.943 C 73.991 103.074, 74.631 104, 75.117 104 C 76.465 104, 76.170 102.386, 74.579 101.065 C 73.412 100.097, 73.254 100.255, 73.695 101.943 M 146.500 102.666 C 144.742 104.075, 144.722 104.192, 146.332 103.635 C 147.339 103.286, 148.577 103, 149.082 103 C 149.587 103, 150 102.550, 150 102 C 150 100.584, 148.818 100.809, 146.500 102.666" stroke="none" fill="#96c7ea" fill-rule="evenodd"/><path d="M 0 89.502 L 0 179.004 227.250 178.752 L 454.500 178.500 454.755 89.250 L 455.011 0 227.505 0 L 0 0 0 89.502 M 0.479 90 C 0.479 139.225, 0.601 159.362, 0.750 134.750 C 0.899 110.137, 0.899 69.862, 0.750 45.250 C 0.601 20.637, 0.479 40.775, 0.479 90 M 350.264 31.223 C 345.741 38.019, 341.095 44.594, 339.939 45.835 C 337.472 48.483, 338.832 49.122, 320.768 36.838 C 314.570 32.624, 309.068 29.024, 308.541 28.838 C 308.014 28.652, 307.282 29.850, 306.916 31.500 C 306.550 33.150, 304.369 42.825, 302.070 53 C 292.635 94.751, 289.764 108.124, 290.173 108.401 C 293.816 110.870, 336.123 139.059, 343 143.600 C 348.225 147.050, 353.696 150.802, 355.158 151.937 C 358.016 154.155, 360.518 154.589, 361.480 153.033 C 362.048 152.114, 379.180 140.261, 418.389 113.658 C 423.125 110.445, 427 107.520, 426.999 107.158 C 426.998 106.796, 425.849 101.775, 424.444 96 C 423.039 90.225, 421.264 82.800, 420.498 79.500 C 418.599 71.314, 415.605 58.582, 412.618 46 C 411.248 40.225, 409.823 33.813, 409.452 31.750 C 409.081 29.688, 408.490 28.026, 408.139 28.058 C 407.787 28.089, 406.097 29.102, 404.382 30.308 C 402.666 31.513, 398.166 34.599, 394.382 37.163 C 390.597 39.728, 385.950 42.991, 384.056 44.413 C 382.161 45.836, 380.073 47, 379.414 47 C 378.756 47, 374.681 41.767, 370.358 35.372 C 366.036 28.976, 361.597 22.646, 360.494 21.305 L 358.488 18.866 350.264 31.223 M 35.201 69.250 C 34.553 72.688, 33.329 79.990, 32.483 85.478 C 31.636 90.966, 30.466 97.049, 29.883 98.996 C 29.300 100.943, 28.975 103.878, 29.161 105.518 C 29.471 108.241, 29.865 108.526, 33.696 108.805 C 37.469 109.079, 38.046 108.812, 39.419 106.156 C 40.259 104.532, 40.894 101.694, 40.830 99.851 C 40.682 95.634, 41.902 90, 42.963 90 C 43.405 90, 44.009 90.928, 44.306 92.062 C 45.412 96.290, 53.389 109, 54.928 108.986 C 55.883 108.977, 58.266 105.574, 61 100.312 C 63.475 95.549, 65.999 91.489, 66.608 91.290 C 67.301 91.064, 67.968 93.383, 68.388 97.482 C 69.372 107.089, 70.490 109, 75.125 109 C 80.739 109, 81.278 107.198, 79.040 95.906 C 78.015 90.732, 76.892 84.025, 76.545 81 C 75.372 70.757, 73.430 63.517, 71.770 63.196 C 70.679 62.985, 68.192 66.447, 63.650 74.496 C 60.049 80.878, 56.825 86.978, 56.484 88.050 C 55.307 91.759, 55.115 91.514, 46.346 75.158 C 40.086 63.482, 39.753 63, 37.950 63 C 36.818 63, 36.052 64.740, 35.201 69.250 M 134.542 63.729 C 128.541 65.254, 121.498 72.053, 118.998 78.736 C 116.426 85.610, 116.482 87.802, 119.395 94.221 C 122.375 100.786, 125.520 104.105, 131.508 107.004 C 137.275 109.796, 146.301 109.418, 152.779 106.113 C 157.867 103.517, 158.201 101.189, 153.994 97.648 L 150.987 95.118 146.721 97.005 C 136.262 101.632, 126.919 93.443, 129.924 82.283 C 132.119 74.131, 140.597 70.566, 147.866 74.738 C 150.867 76.460, 150.921 76.450, 153.947 73.551 C 155.626 71.942, 156.999 70.148, 156.998 69.563 C 156.997 68.978, 155.038 67.263, 152.643 65.750 C 149.076 63.496, 147.227 63.021, 142.395 63.116 C 139.153 63.180, 135.619 63.456, 134.542 63.729 M 167.044 64.918 C 165.735 67.364, 165.728 104.623, 167.036 107.067 C 168.222 109.283, 173.846 109.754, 175.800 107.800 C 176.528 107.072, 177 103.533, 177 98.800 C 177 91.839, 177.202 91, 178.876 91 C 180.195 91, 181.855 93.150, 184.473 98.250 C 189.523 108.088, 190.467 109, 195.596 109 C 197.953 109, 200.108 108.634, 200.384 108.187 C 200.661 107.740, 199.027 103.761, 196.754 99.346 L 192.621 91.317 196.810 86.957 C 199.115 84.559, 201.037 82.125, 201.083 81.549 C 201.129 80.972, 201.305 79.375, 201.473 78 C 201.642 76.625, 200.984 73.654, 200.012 71.398 C 197.243 64.977, 192.174 62.998, 178.696 63.081 C 169.516 63.137, 167.857 63.398, 167.044 64.918 M 216.690 63.750 C 216.307 64.422, 215.087 70.047, 214.467 74 C 214.338 74.825, 213.468 79.775, 212.535 85 C 211.603 90.225, 210.835 95.175, 210.830 96 C 210.824 96.825, 210.368 98.986, 209.815 100.803 C 209.262 102.620, 209.086 105.207, 209.424 106.553 C 209.946 108.632, 210.632 109, 213.984 109 C 218.870 109, 219.888 107.384, 221.104 97.698 C 221.912 91.264, 222.558 88.997, 223.275 90.083 C 223.426 90.313, 225.624 94.550, 228.160 99.500 C 234.368 111.617, 235.179 111.624, 241.469 99.610 C 244.194 94.404, 246.713 90.323, 247.066 90.541 C 247.420 90.759, 247.997 93.699, 248.350 97.074 C 248.703 100.448, 249.562 104.400, 250.259 105.855 C 251.351 108.134, 252.148 108.500, 256.013 108.500 C 260.167 108.500, 260.490 108.315, 260.370 106 C 260.118 101.176, 259.124 94.009, 258.585 93.138 C 258.286 92.653, 257.592 88.712, 257.044 84.379 C 256.495 80.045, 255.470 73.575, 254.765 70 C 252.782 59.937, 251.185 60.816, 242.487 76.755 C 237.225 86.395, 234.982 89.668, 234.259 88.755 C 233.712 88.065, 231.805 84.800, 230.021 81.500 C 220.691 64.241, 218.258 61.001, 216.690 63.750 M 140.502 66.997 C 140.161 67.549, 138.709 68, 137.274 68 C 133.618 68, 134.791 68.750, 139 69.102 C 140.925 69.264, 142.951 69.720, 143.503 70.115 C 144.054 70.511, 145.378 70.197, 146.444 69.417 C 147.510 68.638, 147.846 68, 147.191 68 C 145.205 68, 144.571 67.841, 142.811 66.899 C 141.761 66.337, 140.887 66.374, 140.502 66.997 M 173.751 67.793 C 172.789 67.987, 171.749 69.351, 171.440 70.823 C 171.132 72.295, 170.453 74.287, 169.931 75.250 C 169.315 76.387, 169.337 77, 169.992 77 C 170.565 77, 171 79.778, 171 83.441 C 171 86.984, 171.450 90.160, 172 90.500 C 172.550 90.840, 173 90.234, 173 89.153 C 173 87.657, 173.538 87.287, 175.250 87.605 C 176.519 87.840, 176.846 87.734, 176 87.361 C 173.831 86.405, 172.967 84.753, 173.590 82.750 C 173.890 81.787, 173.767 81, 173.317 81 C 172.868 81, 172.500 79.875, 172.500 78.500 C 172.500 77.125, 172.747 76, 173.049 76 C 173.351 76, 173.415 74.425, 173.190 72.500 L 172.781 69 181.641 68.884 C 186.513 68.820, 189.825 68.621, 189 68.442 C 186.431 67.883, 175.589 67.422, 173.751 67.793 M 148.500 71 C 148.840 71.550, 150.104 71.968, 151.309 71.930 C 153.421 71.862, 153.428 71.829, 151.500 71 C 148.748 69.817, 147.769 69.817, 148.500 71 M 193.344 72.492 C 194.587 75.172, 196 75.815, 196 73.700 C 196 72.310, 194.061 70, 192.894 70 C 192.506 70, 192.708 71.121, 193.344 72.492 M 127.783 72.750 C 125.566 75.292, 123.746 79.079, 124.419 79.752 C 124.739 80.072, 125 79.840, 125 79.238 C 125 78.636, 125.563 77.534, 126.250 76.790 C 129.961 72.775, 131.206 71, 130.310 71 C 129.760 71, 128.623 71.787, 127.783 72.750 M 177.195 77.750 L 177.500 82.500 182.356 82.809 C 187.806 83.156, 191 81.211, 191 77.545 C 191 74.106, 188.992 73, 182.745 73 L 176.890 73 177.195 77.750 M 38 75.531 C 38 76.374, 38.675 77.322, 39.500 77.638 C 40.325 77.955, 41 78.841, 41 79.607 C 41 80.373, 41.450 81, 42 81 C 42.550 81, 43 81.620, 43 82.378 C 43 83.135, 43.648 84.293, 44.441 84.951 C 45.233 85.608, 46.020 87.351, 46.191 88.823 C 46.361 90.295, 46.971 91.418, 47.546 91.318 C 48.122 91.218, 49.646 93.355, 50.934 96.068 C 52.222 98.781, 53.889 101, 54.638 101 C 55.387 101, 56 100.613, 56 100.140 C 56 99.666, 57.119 97.630, 58.487 95.614 C 59.856 93.598, 61.254 90.835, 61.596 89.474 C 61.937 88.113, 62.515 87, 62.879 87 C 63.244 87, 64.648 84.975, 66 82.500 C 68.753 77.460, 70 76.818, 70 80.441 C 70 81.784, 70.519 83.202, 71.152 83.594 C 71.992 84.113, 72.118 83.136, 71.616 79.999 C 71.237 77.629, 70.678 75.288, 70.374 74.797 C 69.360 73.156, 66.935 76.256, 63.240 83.914 C 61.227 88.086, 59.337 91.725, 59.040 92 C 58.743 92.275, 58.002 93.400, 57.393 94.500 C 56.784 95.600, 55.493 96.656, 54.524 96.846 C 53.284 97.090, 52.993 96.794, 53.542 95.846 C 53.970 95.106, 53.957 94.829, 53.513 95.230 C 53.069 95.632, 51.357 93.382, 49.707 90.230 C 48.057 87.079, 46.324 84.350, 45.854 84.167 C 45.384 83.983, 45 83.300, 45 82.649 C 45 80.980, 40.128 74, 38.964 74 C 38.434 74, 38 74.689, 38 75.531 M 219 76 C 219 77.100, 219.450 78, 220 78 C 220.550 78, 221 78.653, 221 79.450 C 221 80.248, 221.614 81.260, 222.365 81.700 C 224.509 82.957, 227.055 88.693, 226.319 90.610 C 225.832 91.881, 226.051 92.194, 227.139 91.777 C 228.184 91.376, 229.317 92.661, 230.951 96.103 C 232.229 98.796, 233.805 101, 234.453 101 C 235.100 101, 236.392 99.537, 237.324 97.750 C 238.256 95.963, 239.969 92.925, 241.131 91 C 242.292 89.075, 244.490 85.164, 246.014 82.310 C 248.836 77.027, 250 76.529, 250 80.608 C 250 81.859, 250.391 83.124, 250.869 83.419 C 251.346 83.714, 252.070 87.228, 252.477 91.228 C 253.078 97.129, 253.389 98.051, 254.124 96.121 C 254.651 94.738, 254.660 93.273, 254.146 92.621 C 253.659 92.004, 252.950 88.646, 252.570 85.157 C 252.190 81.668, 251.427 77.623, 250.874 76.168 L 249.868 73.523 247.972 76.012 C 246.929 77.380, 244.667 81.200, 242.944 84.500 C 235.005 99.707, 234.516 99.825, 228.335 88.021 C 225.894 83.358, 223.244 78.823, 222.448 77.943 C 221.652 77.063, 221 75.815, 221 75.171 C 221 74.527, 220.550 74, 220 74 C 219.450 74, 219 74.900, 219 76 M 194.476 80.026 C 191.508 83.306, 186.172 86.226, 184.768 85.339 C 184.071 84.898, 182.262 84.469, 180.750 84.385 C 177.206 84.190, 176.893 87.629, 180.336 88.938 C 183.281 90.057, 188.673 95.396, 189.504 98.014 C 189.851 99.106, 190.554 100, 191.067 100 C 191.580 100, 192 100.873, 192 101.941 C 192 103.009, 192.450 104.160, 193 104.500 C 194.381 105.353, 194.291 104.852, 191.928 98.538 C 190.789 95.492, 189.439 93, 188.928 93 C 187.543 93, 187.807 91.336, 189.452 89.690 C 190.251 88.892, 190.663 87.996, 190.367 87.700 C 190.071 87.404, 190.767 86.660, 191.914 86.046 C 193.061 85.432, 194.020 85.283, 194.044 85.715 C 194.068 86.147, 194.723 84.717, 195.499 82.538 C 197.176 77.831, 196.955 77.288, 194.476 80.026 M 122 85.014 C 122 87.221, 122.417 89.809, 122.927 90.764 C 123.437 91.719, 124.122 93.352, 124.451 94.393 C 124.779 95.434, 125.274 96.059, 125.552 95.782 C 125.829 95.504, 125.537 93.977, 124.902 92.389 C 124.268 90.800, 123.826 87.588, 123.921 85.250 C 124.017 82.849, 123.637 81, 123.046 81 C 122.471 81, 122 82.806, 122 85.014 M 97.750 82.742 L 91 83.091 91 87.086 L 91 91.081 99.184 90.790 L 107.369 90.500 107.366 87.449 C 107.364 84.260, 106.370 81.862, 105.191 82.196 C 104.811 82.304, 101.463 82.549, 97.750 82.742 M 216.612 86.699 C 216.271 88.789, 215.834 92.075, 215.640 94 C 215.446 95.925, 214.942 98.963, 214.519 100.750 C 214.038 102.783, 214.129 104, 214.763 104 C 215.801 104, 218.641 84.308, 217.734 83.400 C 217.457 83.124, 216.952 84.608, 216.612 86.699 M 72.218 87.500 C 72.161 89.150, 72.446 92.300, 72.850 94.500 C 73.505 98.069, 73.656 98.236, 74.250 96.052 C 74.617 94.706, 74.522 93.129, 74.040 92.548 C 73.558 91.967, 72.974 89.919, 72.742 87.996 C 72.356 84.799, 72.311 84.757, 72.218 87.500 M 35.745 90.250 C 35.488 90.938, 35.633 92.400, 36.068 93.500 C 36.713 95.129, 36.872 94.897, 36.930 92.250 C 37.003 88.870, 36.550 88.105, 35.745 90.250 M 33.975 100.565 C 32.711 103.890, 32.728 104, 34.500 104 C 35.500 104, 36 103, 36 101 C 36 97.323, 35.268 97.166, 33.975 100.565 M 73.695 101.943 C 73.991 103.074, 74.631 104, 75.117 104 C 76.465 104, 76.170 102.386, 74.579 101.065 C 73.412 100.097, 73.254 100.255, 73.695 101.943 M 146.500 102.666 C 144.742 104.075, 144.722 104.192, 146.332 103.635 C 147.339 103.286, 148.577 103, 149.082 103 C 149.587 103, 150 102.550, 150 102 C 150 100.584, 148.818 100.809, 146.500 102.666" stroke="none" fill="#f5f8fa" fill-rule="evenodd"/></svg>